<svg id="visual" viewBox="0 0 960 150" width="960" height="150" xmlns="http://www.w3.org/2000/svg" xmlns:xlink="http://www.w3.org/1999/xlink" version="1.1"><path d="M0 27L17.8 25.7C35.7 24.3 71.3 21.7 106.8 18.7C142.3 15.7 177.7 12.3 213.2 13.7C248.7 15 284.3 21 320 22.5C355.7 24 391.3 21 426.8 21C462.3 21 497.7 24 533.2 23.2C568.7 22.3 604.3 17.7 640 15.2C675.7 12.7 711.3 12.3 746.8 11.7C782.3 11 817.7 10 853.2 11.2C888.7 12.3 924.3 15.7 942.2 17.3L960 19L960 0L942.2 0C924.3 0 888.7 0 853.2 0C817.7 0 782.3 0 746.8 0C711.3 0 675.7 0 640 0C604.3 0 568.7 0 533.2 0C497.7 0 462.3 0 426.8 0C391.3 0 355.7 0 320 0C284.3 0 248.7 0 213.2 0C177.7 0 142.3 0 106.8 0C71.3 0 35.7 0 17.8 0L0 0Z" fill="#fdfdff"></path><path d="M0 43L17.8 44C35.7 45 71.3 47 106.8 45.8C142.3 44.7 177.7 40.3 213.2 43.2C248.7 46 284.3 56 320 57C355.7 58 391.3 50 426.8 48.7C462.3 47.3 497.7 52.7 533.2 49.8C568.7 47 604.3 36 640 35.8C675.7 35.7 711.3 46.3 746.8 49.2C782.3 52 817.7 47 853.2 45C888.7 43 924.3 44 942.2 44.5L960 45L960 17L942.2 15.3C924.3 13.7 888.7 10.3 853.2 9.2C817.7 8 782.3 9 746.8 9.7C711.3 10.3 675.7 10.7 640 13.2C604.3 15.7 568.7 20.3 533.2 21.2C497.7 22 462.3 19 426.8 19C391.3 19 355.7 22 320 20.5C284.3 19 248.7 13 213.2 11.7C177.7 10.3 142.3 13.7 106.8 16.7C71.3 19.7 35.7 22.3 17.8 23.7L0 25Z" fill="#d4d7ef"></path><path d="M0 67L17.8 67C35.7 67 71.3 67 106.8 66C142.3 65 177.7 63 213.2 64C248.7 65 284.3 69 320 71C355.7 73 391.3 73 426.8 73C462.3 73 497.7 73 533.2 66.5C568.7 60 604.3 47 640 46C675.7 45 711.3 56 746.8 62C782.3 68 817.7 69 853.2 67.3C888.7 65.7 924.3 61.3 942.2 59.2L960 57L960 43L942.2 42.5C924.3 42 888.7 41 853.2 43C817.7 45 782.3 50 746.8 47.2C711.3 44.3 675.7 33.7 640 33.8C604.3 34 568.7 45 533.2 47.8C497.7 50.7 462.3 45.3 426.8 46.7C391.3 48 355.7 56 320 55C284.3 54 248.7 44 213.2 41.2C177.7 38.3 142.3 42.7 106.8 43.8C71.3 45 35.7 43 17.8 42L0 41Z" fill="#a6b3df"></path><path d="M0 102L17.8 107C35.7 112 71.3 122 106.8 126C142.3 130 177.7 128 213.2 127.2C248.7 126.3 284.3 126.7 320 126.8C355.7 127 391.3 127 426.8 123C462.3 119 497.7 111 533.2 101.3C568.7 91.7 604.3 80.3 640 84.8C675.7 89.3 711.3 109.7 746.8 114.8C782.3 120 817.7 110 853.2 110C888.7 110 924.3 120 942.2 125L960 130L960 55L942.2 57.2C924.3 59.3 888.7 63.7 853.2 65.3C817.7 67 782.3 66 746.8 60C711.3 54 675.7 43 640 44C604.3 45 568.7 58 533.2 64.5C497.7 71 462.3 71 426.8 71C391.3 71 355.7 71 320 69C284.3 67 248.7 63 213.2 62C177.7 61 142.3 63 106.8 64C71.3 65 35.7 65 17.8 65L0 65Z" fill="#7092d0"></path><path d="M0 151L17.8 151C35.7 151 71.3 151 106.8 151C142.3 151 177.7 151 213.2 151C248.7 151 284.3 151 320 151C355.7 151 391.3 151 426.8 151C462.3 151 497.7 151 533.2 151C568.7 151 604.3 151 640 151C675.7 151 711.3 151 746.8 151C782.3 151 817.7 151 853.2 151C888.7 151 924.3 151 942.2 151L960 151L960 128L942.2 123C924.3 118 888.7 108 853.2 108C817.7 108 782.3 118 746.8 112.8C711.3 107.7 675.7 87.3 640 82.8C604.3 78.3 568.7 89.7 533.2 99.3C497.7 109 462.3 117 426.8 121C391.3 125 355.7 125 320 124.8C284.3 124.7 248.7 124.3 213.2 125.2C177.7 126 142.3 128 106.8 124C71.3 120 35.7 110 17.8 105L0 100Z" fill="#1174c0"></path></svg>