<svg id="visual" viewBox="0 0 960 150" width="960" height="150" xmlns="http://www.w3.org/2000/svg" xmlns:xlink="http://www.w3.org/1999/xlink" version="1.1"><path d="M0 31L87 28L175 34L262 18L349 18L436 19L524 34L611 18L698 31L785 22L873 15L960 21L960 0L873 0L785 0L698 0L611 0L524 0L436 0L349 0L262 0L175 0L87 0L0 0Z" fill="#1174c0"></path><path d="M0 84L87 58L175 81L262 85L349 55L436 62L524 57L611 62L698 73L785 84L873 58L960 88L960 19L873 13L785 20L698 29L611 16L524 32L436 17L349 16L262 16L175 32L87 26L0 29Z" fill="#7a85d9"></path><path d="M0 111L87 78L175 97L262 114L349 99L436 97L524 85L611 96L698 93L785 108L873 108L960 111L960 86L873 56L785 82L698 71L611 60L524 55L436 60L349 53L262 83L175 79L87 56L0 82Z" fill="#be96e9"></path><path d="M0 151L87 151L175 151L262 151L349 151L436 151L524 151L611 151L698 151L785 151L873 151L960 151L960 109L873 106L785 106L698 91L611 94L524 83L436 95L349 97L262 112L175 95L87 76L0 109Z" fill="#faa8f3"></path></svg>