<svg id="visual" viewBox="0 0 960 150" width="960" height="150" xmlns="http://www.w3.org/2000/svg" xmlns:xlink="http://www.w3.org/1999/xlink" version="1.1"><path d="M0 22L9.3 23.8C18.7 25.7 37.3 29.3 56.2 29.3C75 29.3 94 25.7 112.8 23.8C131.7 22 150.3 22 169.2 21.3C188 20.7 207 19.3 225.8 20.8C244.7 22.3 263.3 26.7 282.2 27.3C301 28 320 25 338.8 25.5C357.7 26 376.3 30 395.2 31.8C414 33.7 433 33.3 451.8 30.2C470.7 27 489.3 21 508.2 20.2C527 19.3 546 23.7 564.8 24.3C583.7 25 602.3 22 621.2 22C640 22 659 25 677.8 26.3C696.7 27.7 715.3 27.3 734.2 25.2C753 23 772 19 790.8 19C809.7 19 828.3 23 847.2 24.5C866 26 885 25 903.8 22.7C922.7 20.3 941.3 16.7 950.7 14.8L960 13L960 0L950.7 0C941.3 0 922.7 0 903.8 0C885 0 866 0 847.2 0C828.3 0 809.7 0 790.8 0C772 0 753 0 734.2 0C715.3 0 696.7 0 677.8 0C659 0 640 0 621.2 0C602.3 0 583.7 0 564.8 0C546 0 527 0 508.2 0C489.3 0 470.7 0 451.8 0C433 0 414 0 395.2 0C376.3 0 357.7 0 338.8 0C320 0 301 0 282.2 0C263.3 0 244.7 0 225.8 0C207 0 188 0 169.2 0C150.3 0 131.7 0 112.8 0C94 0 75 0 56.2 0C37.3 0 18.7 0 9.3 0L0 0Z" fill="#faa8f3"></path><path d="M0 43L9.3 43.3C18.7 43.7 37.3 44.3 56.2 44.7C75 45 94 45 112.8 45.5C131.7 46 150.3 47 169.2 45.5C188 44 207 40 225.8 39.7C244.7 39.3 263.3 42.7 282.2 43.3C301 44 320 42 338.8 41.5C357.7 41 376.3 42 395.2 44.5C414 47 433 51 451.8 49.8C470.7 48.7 489.3 42.3 508.2 41.8C527 41.3 546 46.7 564.8 47.2C583.7 47.7 602.3 43.3 621.2 42.2C640 41 659 43 677.8 42.5C696.7 42 715.3 39 734.2 36.5C753 34 772 32 790.8 33.2C809.7 34.3 828.3 38.7 847.2 41.8C866 45 885 47 903.8 45.3C922.7 43.7 941.3 38.3 950.7 35.7L960 33L960 11L950.7 12.8C941.3 14.7 922.7 18.3 903.8 20.7C885 23 866 24 847.2 22.5C828.3 21 809.7 17 790.8 17C772 17 753 21 734.2 23.2C715.3 25.3 696.7 25.7 677.8 24.3C659 23 640 20 621.2 20C602.3 20 583.7 23 564.8 22.3C546 21.7 527 17.3 508.2 18.2C489.3 19 470.7 25 451.8 28.2C433 31.3 414 31.7 395.2 29.8C376.3 28 357.7 24 338.8 23.5C320 23 301 26 282.2 25.3C263.3 24.7 244.7 20.3 225.8 18.8C207 17.3 188 18.7 169.2 19.3C150.3 20 131.7 20 112.8 21.8C94 23.7 75 27.3 56.2 27.3C37.3 27.3 18.7 23.7 9.3 21.8L0 20Z" fill="#f1c1fc"></path><path d="M0 94L9.3 93.3C18.7 92.7 37.3 91.3 56.2 90.3C75 89.3 94 88.7 112.8 87.3C131.7 86 150.3 84 169.2 79.3C188 74.7 207 67.3 225.8 65.8C244.7 64.3 263.3 68.7 282.2 71.3C301 74 320 75 338.8 74.3C357.7 73.7 376.3 71.3 395.2 74.7C414 78 433 87 451.8 87.5C470.7 88 489.3 80 508.2 80.5C527 81 546 90 564.8 95C583.7 100 602.3 101 621.2 101.7C640 102.3 659 102.7 677.8 99.2C696.7 95.7 715.3 88.3 734.2 85.8C753 83.3 772 85.7 790.8 86.8C809.7 88 828.3 88 847.2 86C866 84 885 80 903.8 76.3C922.7 72.7 941.3 69.3 950.7 67.7L960 66L960 31L950.7 33.7C941.3 36.3 922.7 41.7 903.8 43.3C885 45 866 43 847.2 39.8C828.3 36.7 809.7 32.3 790.8 31.2C772 30 753 32 734.2 34.5C715.3 37 696.7 40 677.8 40.5C659 41 640 39 621.2 40.2C602.3 41.3 583.7 45.7 564.8 45.2C546 44.7 527 39.3 508.2 39.8C489.3 40.3 470.7 46.7 451.8 47.8C433 49 414 45 395.2 42.5C376.3 40 357.7 39 338.8 39.5C320 40 301 42 282.2 41.3C263.3 40.7 244.7 37.3 225.8 37.7C207 38 188 42 169.2 43.5C150.3 45 131.7 44 112.8 43.5C94 43 75 43 56.2 42.7C37.3 42.3 18.7 41.7 9.3 41.3L0 41Z" fill="#edd7ff"></path><path d="M0 136L9.3 133.5C18.7 131 37.3 126 56.2 125.3C75 124.7 94 128.3 112.8 131.3C131.7 134.3 150.3 136.7 169.2 135.8C188 135 207 131 225.8 128.5C244.7 126 263.3 125 282.2 125.5C301 126 320 128 338.8 127.8C357.7 127.7 376.3 125.3 395.2 126.8C414 128.3 433 133.7 451.8 134.7C470.7 135.7 489.3 132.3 508.2 131.7C527 131 546 133 564.8 132.5C583.7 132 602.3 129 621.2 127.7C640 126.3 659 126.7 677.8 127.7C696.7 128.7 715.3 130.3 734.2 131.7C753 133 772 134 790.8 132C809.7 130 828.3 125 847.2 124.5C866 124 885 128 903.8 128.5C922.7 129 941.3 126 950.7 124.5L960 123L960 64L950.7 65.7C941.3 67.3 922.7 70.7 903.8 74.3C885 78 866 82 847.2 84C828.3 86 809.7 86 790.8 84.8C772 83.7 753 81.3 734.2 83.8C715.3 86.3 696.7 93.7 677.8 97.2C659 100.7 640 100.3 621.2 99.7C602.3 99 583.7 98 564.8 93C546 88 527 79 508.2 78.5C489.3 78 470.7 86 451.8 85.5C433 85 414 76 395.2 72.7C376.3 69.3 357.7 71.7 338.8 72.3C320 73 301 72 282.2 69.3C263.3 66.7 244.7 62.3 225.8 63.8C207 65.3 188 72.7 169.2 77.3C150.3 82 131.7 84 112.8 85.3C94 86.7 75 87.3 56.2 88.3C37.3 89.3 18.7 90.7 9.3 91.3L0 92Z" fill="#f1ebff"></path><path d="M0 151L9.3 151C18.7 151 37.3 151 56.2 151C75 151 94 151 112.8 151C131.7 151 150.3 151 169.2 151C188 151 207 151 225.8 151C244.7 151 263.3 151 282.2 151C301 151 320 151 338.8 151C357.7 151 376.3 151 395.2 151C414 151 433 151 451.8 151C470.7 151 489.3 151 508.2 151C527 151 546 151 564.8 151C583.7 151 602.3 151 621.2 151C640 151 659 151 677.8 151C696.7 151 715.3 151 734.2 151C753 151 772 151 790.8 151C809.7 151 828.3 151 847.2 151C866 151 885 151 903.8 151C922.7 151 941.3 151 950.7 151L960 151L960 121L950.7 122.5C941.3 124 922.7 127 903.8 126.5C885 126 866 122 847.2 122.5C828.3 123 809.7 128 790.8 130C772 132 753 131 734.2 129.7C715.3 128.3 696.7 126.7 677.8 125.7C659 124.7 640 124.3 621.2 125.7C602.3 127 583.7 130 564.8 130.5C546 131 527 129 508.2 129.7C489.3 130.3 470.7 133.7 451.8 132.7C433 131.7 414 126.3 395.2 124.8C376.3 123.3 357.7 125.7 338.8 125.8C320 126 301 124 282.2 123.5C263.3 123 244.7 124 225.8 126.5C207 129 188 133 169.2 133.8C150.3 134.7 131.7 132.3 112.8 129.3C94 126.3 75 122.7 56.2 123.3C37.3 124 18.7 129 9.3 131.5L0 134Z" fill="#fdfdff"></path></svg>