<svg id="visual" viewBox="0 0 960 150" width="960" height="150" xmlns="http://www.w3.org/2000/svg" xmlns:xlink="http://www.w3.org/1999/xlink" version="1.1"><g stroke-width="1" stroke-linejoin="bevel"><path d="M529.3 39L525.3 0L442.7 0Z" fill="#07081a" stroke="#07081a"></path><path d="M442.7 0L415.7 109L529.3 39Z" fill="#090c1d" stroke="#090c1d"></path><path d="M415.7 109L504.3 150L529.3 39Z" fill="#090c1d" stroke="#090c1d"></path><path d="M415.7 109L447.7 150L504.3 150Z" fill="#0a1426" stroke="#0a1426"></path><path d="M442.7 0L319 65L415.7 109Z" fill="#091629" stroke="#091629"></path><path d="M415.7 109L305 150L447.7 150Z" fill="#0a0f20" stroke="#0a0f20"></path><path d="M529.3 39L655 0L525.3 0Z" fill="#0a1426" stroke="#0a1426"></path><path d="M670 106L655 0L529.3 39Z" fill="#0a0f20" stroke="#0a0f20"></path><path d="M442.7 0L308 0L319 65Z" fill="#0a1426" stroke="#0a1426"></path><path d="M504.3 150L611 150L529.3 39Z" fill="#0a0f20" stroke="#0a0f20"></path><path d="M611 150L670 106L529.3 39Z" fill="#051d33" stroke="#051d33"></path><path d="M209.3 56L305 150L319 65Z" fill="#090c1d" stroke="#090c1d"></path><path d="M319 65L305 150L415.7 109Z" fill="#050517" stroke="#050517"></path><path d="M768.7 150L726.7 103L670 106Z" fill="#031f36" stroke="#031f36"></path><path d="M670 106L726.7 103L655 0Z" fill="#091629" stroke="#091629"></path><path d="M308 0L209.3 56L319 65Z" fill="#090c1d" stroke="#090c1d"></path><path d="M726.7 103L775.7 0L655 0Z" fill="#0a1426" stroke="#0a1426"></path><path d="M308 0L177.3 0L209.3 56Z" fill="#050517" stroke="#050517"></path><path d="M611 150L768.7 150L670 106Z" fill="#050517" stroke="#050517"></path><path d="M841.3 60L819.3 0L775.7 0Z" fill="#071b30" stroke="#071b30"></path><path d="M117.7 91L197.3 150L209.3 56Z" fill="#050517" stroke="#050517"></path><path d="M209.3 56L197.3 150L305 150Z" fill="#0a0f20" stroke="#0a0f20"></path><path d="M841.3 60L775.7 0L726.7 103Z" fill="#090c1d" stroke="#090c1d"></path><path d="M768.7 150L841.3 60L726.7 103Z" fill="#090c1d" stroke="#090c1d"></path><path d="M819.3 150L841.3 60L768.7 150Z" fill="#031f36" stroke="#031f36"></path><path d="M177.3 0L117.7 91L209.3 56Z" fill="#071b30" stroke="#071b30"></path><path d="M177.3 0L85.7 0L117.7 91Z" fill="#091629" stroke="#091629"></path><path d="M0 150L91.7 150L117.7 91Z" fill="#051d33" stroke="#051d33"></path><path d="M117.7 91L91.7 150L197.3 150Z" fill="#071b30" stroke="#071b30"></path><path d="M841.3 60L960 0L819.3 0Z" fill="#08182c" stroke="#08182c"></path><path d="M960 71L960 0L841.3 60Z" fill="#0a0f20" stroke="#0a0f20"></path><path d="M960 150L960 71L841.3 60Z" fill="#050517" stroke="#050517"></path><path d="M85.7 0L0 36L117.7 91Z" fill="#0a1426" stroke="#0a1426"></path><path d="M85.7 0L0 0L0 36Z" fill="#0a1426" stroke="#0a1426"></path><path d="M819.3 150L960 150L841.3 60Z" fill="#031f36" stroke="#031f36"></path><path d="M0 36L0 150L117.7 91Z" fill="#050517" stroke="#050517"></path></g></svg>